<svg width="608" height="889" viewBox="0 0 608 889" fill="none" xmlns="http://www.w3.org/2000/svg">
<path d="M34.5 455.5C23.5 414.5 -22.5 316 15.5 224C21.8333 215 34.5 192.8 34.5 176C34.5 155 -0.5 46 34.5 9.50001C69.5 -27 141 60.5 179 67C217 73.5 256.5 52.5 306 46C355.5 39.5 380.5 95.5 431 46C481.5 -3.49998 507 14.5 518.5 46C530 77.5 507 157 518.5 176C530 195 550 282.5 551.5 328.5C553 374.5 505.5 441 528 469.5C550.5 498 601 541 607 661.5C613 782 542 826.5 518.5 842.5C495 858.5 445.5 842.5 431 858C416.5 873.5 382 888.5 348.5 888.5C315 888.5 269.5 867.5 261.5 867.5C253.5 867.5 226.5 887 193 888.5C159.5 890 104.5 869.5 103 842.5C101.5 815.5 84 844 58.5 826.5C33 809 66.5 774 58.5 768C50.5 762 15.5 766 15.5 669.5C15.5 573 45.5 496.5 34.5 455.5Z" fill="#D1B996"/>
<ellipse cx="177" cy="280" rx="38" ry="39" fill="#0E1010"/>
<path d="M288.5 357C302 341.5 270.5 342.5 248.5 342.5C228.5 342.5 228.5 352 235.5 362.5C242.5 373 248.5 380.5 261 380.5C273.5 380.5 275 372.5 288.5 357Z" fill="#B8783F"/>
<ellipse cx="356" cy="280" rx="38" ry="39" fill="#0E1010"/>
<circle cx="165" cy="270" r="9" fill="#E2D2B9"/>
<circle cx="337" cy="270" r="9" fill="#E2D2B9"/>
<path d="M259.5 379.5C258.5 399 242.5 411.5 233.5 412.5" stroke="#67461C" stroke-width="6" stroke-linecap="round"/>
<path d="M260 379C261.115 398.5 278.962 411 289 412" stroke="#67461C" stroke-width="6" stroke-linecap="round"/>
</svg>
